<svg width="92" height="15" viewBox="0 0 92 15" fill="none" xmlns="http://www.w3.org/2000/svg">
<g clip-path="url(#clip0_59_7)">
<path d="M8.2244 0.777996L9.9162 4.20603C10.0338 4.44445 10.2613 4.60966 10.5245 4.64783L14.3076 5.19758C14.9703 5.29395 15.2347 6.1081 14.7554 6.57524L12.0179 9.24358C11.8277 9.42912 11.7407 9.69664 11.7857 9.95853L12.4318 13.7264C12.5451 14.3863 11.8524 14.8894 11.2598 14.5781L7.87615 12.7993C7.64085 12.6757 7.35956 12.6757 7.12427 12.7993L3.74067 14.5781C3.14805 14.8897 2.45531 14.3863 2.56858 13.7264L3.2147 9.95853C3.25975 9.69664 3.17277 9.42912 2.98253 9.24358L0.245047 6.57524C-0.234302 6.10778 0.030091 5.29364 0.692794 5.19758L4.47596 4.64783C4.7391 4.60966 4.96657 4.44445 5.08422 4.20603L6.77602 0.777996C7.07202 0.177558 7.92809 0.177558 8.2244 0.777996Z" fill="#FFB300"/>
</g>
<g clip-path="url(#clip1_59_7)">
<path d="M27.391 0.777996L29.0828 4.20603C29.2005 4.44445 29.4279 4.60966 29.6911 4.64783L33.4743 5.19758C34.137 5.29395 34.4013 6.1081 33.922 6.57524L31.1845 9.24358C30.9943 9.42912 30.9073 9.69664 30.9523 9.95853L31.5985 13.7264C31.7117 14.3863 31.019 14.8894 30.4264 14.5781L27.0428 12.7993C26.8075 12.6757 26.5262 12.6757 26.2909 12.7993L22.9073 14.5781C22.3147 14.8897 21.6219 14.3863 21.7352 13.7264L22.3813 9.95853C22.4264 9.69664 22.3394 9.42912 22.1492 9.24358L19.4117 6.57524C18.9323 6.10778 19.1967 5.29364 19.8594 5.19758L23.6426 4.64783C23.9057 4.60966 24.1332 4.44445 24.2508 4.20603L25.9426 0.777996C26.2386 0.177558 27.0947 0.177558 27.391 0.777996Z" fill="#FFB300"/>
</g>
<g clip-path="url(#clip2_59_7)">
<path d="M46.5579 0.777996L48.2497 4.20603C48.3673 4.44445 48.5948 4.60966 48.858 4.64783L52.6411 5.19758C53.3038 5.29395 53.5682 6.1081 53.0889 6.57524L50.3514 9.24358C50.1611 9.42912 50.0742 9.69664 50.1192 9.95853L50.7653 13.7264C50.8786 14.3863 50.1859 14.8894 49.5932 14.5781L46.2096 12.7993C45.9744 12.6757 45.6931 12.6757 45.4578 12.7993L42.0742 14.5781C41.4815 14.8897 40.7888 14.3863 40.9021 13.7264L41.5482 9.95853C41.5932 9.69664 41.5063 9.42912 41.316 9.24358L38.5785 6.57524C38.0992 6.10778 38.3636 5.29364 39.0263 5.19758L42.8095 4.64783C43.0726 4.60966 43.3001 4.44445 43.4177 4.20603L45.1095 0.777996C45.4055 0.177558 46.2616 0.177558 46.5579 0.777996Z" fill="#FFB300"/>
</g>
<g clip-path="url(#clip3_59_7)">
<path d="M65.7244 0.777996L67.4162 4.20603C67.5338 4.44445 67.7613 4.60966 68.0245 4.64783L71.8076 5.19758C72.4703 5.29395 72.7347 6.1081 72.2554 6.57524L69.5179 9.24358C69.3277 9.42912 69.2407 9.69664 69.2857 9.95853L69.9318 13.7264C70.0451 14.3863 69.3524 14.8894 68.7598 14.5781L65.3761 12.7993C65.1409 12.6757 64.8596 12.6757 64.6243 12.7993L61.2407 14.5781C60.6481 14.8897 59.9553 14.3863 60.0686 13.7264L60.7147 9.95853C60.7598 9.69664 60.6728 9.42912 60.4825 9.24358L57.745 6.57524C57.2657 6.10778 57.5301 5.29364 58.1928 5.19758L61.976 4.64783C62.2391 4.60966 62.4666 4.44445 62.5842 4.20603L64.276 0.777996C64.572 0.177558 65.4281 0.177558 65.7244 0.777996Z" fill="#FFB300"/>
</g>
<g clip-path="url(#clip4_59_7)">
<path d="M84.891 0.777996L86.5828 4.20603C86.7005 4.44445 86.9279 4.60966 87.1911 4.64783L90.9743 5.19758C91.637 5.29395 91.9013 6.1081 91.422 6.57524L88.6845 9.24358C88.4943 9.42912 88.4073 9.69664 88.4523 9.95853L89.0985 13.7264C89.2117 14.3863 88.519 14.8894 87.9264 14.5781L84.5428 12.7993C84.3075 12.6757 84.0262 12.6757 83.7909 12.7993L80.4073 14.5781C79.8147 14.8897 79.1219 14.3863 79.2352 13.7264L79.8813 9.95853C79.9264 9.69664 79.8394 9.42912 79.6492 9.24358L76.9117 6.57524C76.4323 6.10778 76.6967 5.29364 77.3594 5.19758L81.1426 4.64783C81.4057 4.60966 81.6332 4.44445 81.7508 4.20603L83.4426 0.777996C83.7386 0.177558 84.5947 0.177558 84.891 0.777996Z" fill="#FFB300"/>
</g>
<defs>
<clipPath id="clip0_59_7">
<rect width="15" height="15" fill="white"/>
</clipPath>
<clipPath id="clip1_59_7">
<rect width="15" height="15" fill="white" transform="translate(19.1666)"/>
</clipPath>
<clipPath id="clip2_59_7">
<rect width="15" height="15" fill="white" transform="translate(38.3335)"/>
</clipPath>
<clipPath id="clip3_59_7">
<rect width="15" height="15" fill="white" transform="translate(57.5)"/>
</clipPath>
<clipPath id="clip4_59_7">
<rect width="15" height="15" fill="white" transform="translate(76.6666)"/>
</clipPath>
</defs>
</svg>
